<svg width="151" height="29" viewBox="0 0 151 29" fill="none" xmlns="http://www.w3.org/2000/svg">
<path d="M3.07719 0.981201V4.48937H7.21228L0.163818 22.5247H5.33268L6.88334 18.0776H15.6704L17.268 22.5247H22.5779L14.1667 0.981201H3.07719ZM8.29299 14.1741L11.2534 5.92235L14.2606 14.1741H8.29299Z" fill="white"/>
<path d="M150.953 22.4739V19.2128H148.791L145.221 13.7775L149.966 6.71155H145.268L141.461 12.4434H139.394V0.288086H134.695V22.5234H139.394V15.9515H141.508L145.643 22.5234H145.784H150.953H151L150.953 22.4739Z" fill="white"/>
<path d="M50.2067 10.2206L49.5022 6.66299H42.5V9.97357H45.6013V22.4747H50.3008V12.79C50.9583 11.6536 52.2743 10.7641 54.671 10.7641C55.3756 10.7641 56.0801 10.863 56.5034 11.0112V6.61357C56.2212 6.4653 55.7048 6.36646 55.1875 6.36646C52.2272 6.36646 50.582 8.24415 50.2067 10.2206Z" fill="white"/>
<path d="M66.4207 6.31714C61.5801 6.31714 57.9624 9.62781 57.9624 14.6184C57.9624 19.609 61.5331 22.8701 66.4207 22.8701C71.2133 22.8701 74.831 19.609 74.831 14.6184C74.831 9.62781 71.2133 6.31714 66.4207 6.31714ZM66.4207 19.016C64.165 19.016 62.6609 17.1878 62.6609 14.6184C62.6609 11.9995 64.165 10.1713 66.4207 10.1713C68.6284 10.1713 70.1325 11.9995 70.1325 14.6184C70.1325 17.1878 68.6284 19.016 66.4207 19.016Z" fill="white"/>
<path d="M86.3428 6.31626C84.1341 6.31626 82.6771 7.40337 81.8785 8.53981V0.288086H77.1799V22.5234H81.6433V20.3987C82.3949 21.6339 83.946 22.9187 86.3428 22.9187C90.2427 22.9187 93.297 19.8551 93.297 14.6668C93.297 9.37981 90.2427 6.31626 86.3428 6.31626ZM85.1209 19.0151C83.899 19.0151 82.7711 18.5704 81.8785 17.681V11.5045C82.7711 10.6151 83.899 10.1704 85.1209 10.1704C87.2825 10.1704 88.6445 11.8998 88.6445 14.6175C88.5975 17.2857 87.2355 19.0151 85.1209 19.0151Z" fill="white"/>
<path d="M110.355 18.5219V12.4937C110.355 8.68897 107.583 6.31714 103.073 6.31714C100.3 6.31714 98.2794 6.95954 96.7763 7.89839V11.7524C98.3264 10.616 100.253 9.92426 102.273 9.92426C104.341 9.92426 105.845 10.7643 105.845 12.889V13.2843C104.999 13.0371 103.778 12.8395 102.509 12.8395C98.8438 12.8395 95.5073 14.3713 95.5073 17.8795C95.5073 20.7454 97.9511 22.8207 101.193 22.8207C103.778 22.8207 105.14 21.8818 105.986 20.7454C106.456 22.1784 107.96 22.8207 109.416 22.8207C110.92 22.8207 111.671 22.4748 112.189 22.2277V19.3619C112.001 19.4113 111.671 19.4607 111.436 19.4607C110.873 19.5595 110.355 19.2631 110.355 18.5219ZM102.65 19.5595C101.146 19.5595 100.159 18.8184 100.159 17.7313C100.159 16.2984 101.71 15.8043 103.12 15.8043C104.154 15.8043 105.046 15.9524 105.798 16.1995V18.0771C104.999 19.016 104.013 19.5595 102.65 19.5595Z" fill="white"/>
<path d="M125.156 6.31714C122.571 6.31714 120.832 7.7007 119.94 8.98541L119.469 6.6631H112.468V9.97368H115.57V22.4748H120.269V11.5054C120.927 10.7643 122.007 10.3195 123.182 10.3195C125.062 10.3195 126.142 11.3078 126.142 13.3831V22.5243H130.841V11.9995C130.888 8.29368 128.445 6.31714 125.156 6.31714Z" fill="white"/>
<path d="M35.4056 8.88656C34.7001 7.65127 33.1029 6.31714 30.6121 6.31714C26.7122 6.31714 23.658 9.23243 23.658 14.3218C23.658 19.3124 26.7122 22.2278 30.6121 22.2278C32.9618 22.2278 34.4659 21.0418 35.2175 19.9054V21.3384C35.2175 24.2537 33.0088 25.2418 30.7532 25.2418C28.5918 25.2418 26.7593 24.5995 25.0676 23.4137V27.3171C26.6183 28.3054 28.6858 28.8984 31.5047 28.8984C36.2513 28.8984 39.869 26.3784 39.869 21.4371V6.71243H35.4056V8.88656ZM31.881 18.5218C29.7666 18.5218 28.3569 16.8418 28.3569 14.3218C28.3099 11.7031 29.7666 10.1219 31.881 10.1219C33.1499 10.1219 34.3248 10.5666 35.2645 11.5054V17.1878C34.3248 18.0278 33.1499 18.5218 31.881 18.5218Z" fill="white"/>
</svg>
